<svg xmlns="http://www.w3.org/2000/svg" version="1.1" width="100" height="100" viewBox="0 0 100 100"><rect x="0" y="0" width="100" height="100" fill="#ffffff"/><g transform="scale(4.762)"><g transform="translate(0,0)"><path fill-rule="evenodd" d="M10 0L10 1L11 1L11 0ZM12 0L12 2L13 2L13 0ZM8 2L8 3L9 3L9 2ZM10 2L10 3L11 3L11 2ZM12 3L12 5L10 5L10 4L9 4L9 6L8 6L8 8L4 8L4 9L3 9L3 8L0 8L0 9L1 9L1 10L0 10L0 11L1 11L1 12L0 12L0 13L1 13L1 12L2 12L2 13L3 13L3 12L4 12L4 13L5 13L5 12L6 12L6 13L8 13L8 17L9 17L9 18L8 18L8 21L9 21L9 20L10 20L10 21L12 21L12 20L13 20L13 21L17 21L17 20L18 20L18 21L19 21L19 20L20 20L20 21L21 21L21 18L20 18L20 17L19 17L19 16L21 16L21 13L20 13L20 15L19 15L19 16L18 16L18 15L17 15L17 16L18 16L18 17L17 17L17 18L16 18L16 17L15 17L15 16L16 16L16 15L15 15L15 14L14 14L14 13L13 13L13 12L12 12L12 9L13 9L13 10L14 10L14 11L15 11L15 13L16 13L16 14L17 14L17 13L19 13L19 12L20 12L20 11L21 11L21 9L19 9L19 8L18 8L18 9L19 9L19 10L18 10L18 11L17 11L17 10L16 10L16 11L15 11L15 10L14 10L14 9L15 9L15 8L12 8L12 7L13 7L13 6L12 6L12 5L13 5L13 3ZM9 6L9 9L6 9L6 10L5 10L5 9L4 9L4 10L1 10L1 11L2 11L2 12L3 12L3 11L4 11L4 12L5 12L5 11L6 11L6 12L7 12L7 11L6 11L6 10L8 10L8 11L9 11L9 13L10 13L10 15L9 15L9 17L10 17L10 19L12 19L12 18L13 18L13 20L16 20L16 18L15 18L15 17L14 17L14 18L13 18L13 16L14 16L14 14L13 14L13 16L12 16L12 15L11 15L11 14L12 14L12 12L11 12L11 11L9 11L9 9L10 9L10 6ZM11 6L11 7L12 7L12 6ZM11 8L11 9L12 9L12 8ZM4 10L4 11L5 11L5 10ZM10 15L10 17L11 17L11 18L12 18L12 17L11 17L11 15ZM18 17L18 18L17 18L17 19L18 19L18 18L19 18L19 19L20 19L20 18L19 18L19 17ZM14 18L14 19L15 19L15 18ZM0 0L0 7L7 7L7 0ZM1 1L1 6L6 6L6 1ZM2 2L2 5L5 5L5 2ZM14 0L14 7L21 7L21 0ZM15 1L15 6L20 6L20 1ZM16 2L16 5L19 5L19 2ZM0 14L0 21L7 21L7 14ZM1 15L1 20L6 20L6 15ZM2 16L2 19L5 19L5 16Z" fill="#000000"/></g></g></svg>